<?xml version="1.0" encoding="utf-8"?>
<!-- Generator: Adobe Illustrator 22.0.0, SVG Export Plug-In . SVG Version: 6.00 Build 0)  -->
<svg version="1.1" id="Слой_1" xmlns="http://www.w3.org/2000/svg" xmlns:xlink="http://www.w3.org/1999/xlink" x="0px" y="0px"
	 viewBox="0 0 1000 700" style="enable-background:new 0 0 1000 700;" xml:space="preserve">
<style type="text/css">
	.st0{display:none;}
	.st1{display:inline;fill-rule:evenodd;clip-rule:evenodd;fill:#FFFFFF;}
	.st2{display:inline;fill-rule:evenodd;clip-rule:evenodd;fill:#8CC798;}
	.st3{display:inline;fill-rule:evenodd;clip-rule:evenodd;fill:#4FA26C;}
	.st4{display:inline;fill-rule:evenodd;clip-rule:evenodd;fill:#009DE2;}
	.st5{display:inline;fill-rule:evenodd;clip-rule:evenodd;fill:#A0D8F7;}
	.st6{display:inline;fill-rule:evenodd;clip-rule:evenodd;fill:#FFEC00;}
	.st7{display:inline;}
	.st8{fill-rule:evenodd;clip-rule:evenodd;fill:#FFEC00;}
	.st9{fill-rule:evenodd;clip-rule:evenodd;fill:#FFCB00;}
	.st10{fill-rule:evenodd;clip-rule:evenodd;fill:#EE7C00;}
	.st11{display:inline;fill-rule:evenodd;clip-rule:evenodd;fill:#006126;}
	.st12{fill-rule:evenodd;clip-rule:evenodd;fill:#8CC798;}
	.st13{fill-rule:evenodd;clip-rule:evenodd;fill:#4FA26C;}
	.st14{fill-rule:evenodd;clip-rule:evenodd;fill:#009DE2;}
	.st15{fill-rule:evenodd;clip-rule:evenodd;fill:#A0D8F7;}
	.st16{fill-rule:evenodd;clip-rule:evenodd;fill:#006126;}
</style>
<g class="st0">
	<path class="st1" d="M500.3,14.1c185.4,0,335.7,150.3,335.7,335.7c0,185.4-150.3,335.7-335.7,335.7
		c-185.4,0-335.7-150.3-335.7-335.7C164.6,164.4,314.9,14.1,500.3,14.1z"/>
	<path class="st2" d="M500.3,543c-270,0-488.9-83.1-488.9-132.4c0-49.4,114.8-80.8,280-112.3c-0.3,9.1-0.3,18.4-0.3,27.5
		c7,36.3,97.3,55.3,209.2,55.3c111.9,0,202.5-20.5,209.2-55.3c-0.1-9.1,0-18.3-0.3-27.4c165.2,31.6,279.9,62.9,279.9,112.3
		C989.2,460,770.3,543,500.3,543z"/>
	<path class="st2" d="M690.3,529.3c-43.4,40-112.3,65.9-190,65.9c-77.6,0-146.6-25.9-190-65.9C368.8,537.9,433,543,500.3,543
		C567.7,543,631.9,537.9,690.3,529.3z"/>
	<path class="st3" d="M495.9,595.2c-75.8-1-142.9-26.6-185.5-65.9c30.6,4.5,62.8,8,96.2,10.4C412.8,548.4,437.1,577.2,495.9,595.2z"
		/>
	<path class="st4" d="M500.4,104.4c-109.2,0-201.2,85.1-209,194.1l-0.2,10.3c5.9,30.8,97.3,55.3,209.2,55.3
		c111.9,0,203.3-24.5,209.2-55.3l-0.2-10.3C701.5,189.5,609.6,104.4,500.4,104.4z"/>
	<path class="st5" d="M645.8,347.7l1.8-0.5c17.6-4.8,58-17.7,62-38.4l-0.2-10.3c-5-71.6-47.3-136.1-111.9-170.1
		c-3.1-1.6-5.3-2.8-9.4-4.6c3.3,2.4,57.7,46.9,57.7,152.6V347.7z"/>
	<path class="st6" d="M291.2,308.8L291.2,308.8v16.9c7,36.3,97.3,55.3,209.2,55.3c111.9,0,202.5-20.5,209.2-55.3v-16.9
		c-5.9,30.8-97.3,55.3-209.2,55.3C388.5,364.1,297.1,339.6,291.2,308.8z"/>
	<g class="st7">
		<path class="st8" d="M500.4,427.9L500.4,427.9c18.6,0,33.8,15.2,33.8,33.8v0.3c-9.6,4.6-21.2,7.2-33.8,7.2
			c-12.5,0-24.2-2.7-33.8-7.2v-0.3C466.6,443.1,481.8,427.9,500.4,427.9z"/>
		<path class="st9" d="M466.6,462v-0.3v-0.1l0-0.8v0c0.4-14.7,10.3-27.1,23.8-31.4l0.7-0.2l0.1,0l0,0l0.8-0.2l0.7-0.2l0.1,0l0.6-0.1
			l0.2,0l0.1,0l0.7-0.1l0.6-0.1l0.2,0l0.6-0.1l0.3,0l0.5-0.1l0.3,0l0.5-0.1l0.1,0l0.7-0.1l0,0c-0.2,0.1-14.9,8.4-17.3,24.2
			c-0.8,5.1-1,10.3-1,14.6C475.1,465.5,470.7,463.9,466.6,462z"/>
		<path class="st10" d="M534.2,462v9.8c-9.6,4.5-21.2,7.2-33.8,7.2c-12.5,0-24.2-2.7-33.8-7.2V462c9.6,4.6,21.2,7.2,33.8,7.2
			C512.9,469.2,524.5,466.5,534.2,462z"/>
	</g>
	<g class="st7">
		<path class="st8" d="M309.9,410.6L309.9,410.6c18.6,0,33.8,15.2,33.8,33.8v0.3c-9.6,4.5-21.2,7.2-33.8,7.2
			c-12.5,0-24.2-2.7-33.8-7.2v-0.3C276.1,425.8,291.3,410.6,309.9,410.6z"/>
		<path class="st9" d="M276.1,444.7v-0.3v-0.1l0-0.8v0c0.4-14.7,10.3-27.2,23.8-31.4l0.7-0.2l0.1,0l0,0l0.8-0.2l0.7-0.2l0.1,0
			l0.6-0.1l0.2,0l0.1,0l0.7-0.1l0.6-0.1l0.3,0l0.6-0.1l0.3,0l0.5-0.1l0.3,0l0.5,0l0.1,0l0.7-0.1h0c-0.2,0.1-14.9,8.4-17.3,24.2
			c-0.8,5.1-1,10.3-1,14.6C284.7,448.2,280.2,446.6,276.1,444.7z"/>
		<path class="st10" d="M343.7,444.7v9.8c-9.6,4.6-21.2,7.2-33.8,7.2c-12.5,0-24.2-2.7-33.8-7.2v-9.8c9.6,4.5,21.2,7.2,33.8,7.2
			C322.5,451.9,334.1,449.2,343.7,444.7z"/>
	</g>
	<g class="st7">
		<path class="st8" d="M681.1,410.6L681.1,410.6c18.6,0,33.8,15.2,33.8,33.8v0.3c-9.6,4.5-21.2,7.2-33.8,7.2
			c-12.5,0-24.2-2.7-33.8-7.2v-0.3C647.3,425.8,662.5,410.6,681.1,410.6z"/>
		<path class="st9" d="M647.3,444.7v-0.3v-0.1l0-0.8v0c0.4-14.7,10.3-27.2,23.8-31.4l0.7-0.2l0.1,0l0,0l0.8-0.2l0.7-0.2l0.1,0
			l0.6-0.1l0.2,0l0.1,0l0.7-0.1l0.6-0.1l0.2,0l0.6-0.1l0.3,0l0.5-0.1l0.3,0l0.5,0l0.1,0l0.7-0.1h0.1c-0.2,0.1-14.9,8.4-17.3,24.2
			c-0.8,5.1-1,10.3-1,14.6C655.9,448.2,651.4,446.6,647.3,444.7z"/>
		<path class="st10" d="M714.9,444.7v9.8c-9.6,4.6-21.2,7.2-33.8,7.2c-12.5,0-24.2-2.7-33.8-7.2v-9.8c9.6,4.5,21.2,7.2,33.8,7.2
			C693.6,451.9,705.3,449.2,714.9,444.7z"/>
	</g>
	<g class="st7">
		<path class="st8" d="M809.9,357.3L809.9,357.3c18.6,0,33.8,15.2,33.8,33.8v0.3c-9.6,4.5-21.2,7.2-33.8,7.2
			c-12.5,0-24.2-2.7-33.8-7.2v-0.3C776.1,372.6,791.3,357.3,809.9,357.3z"/>
		<path class="st9" d="M776.1,391.4v-0.3v-0.1l0-0.8v0c0.4-14.7,10.3-27.2,23.8-31.4l0.7-0.2l0.1,0l0,0l0.8-0.2l0.7-0.2l0.1,0
			l0.6-0.1l0.2,0l0.1,0l0.7-0.1l0.6-0.1l0.2,0l0.6-0.1l0.3,0l0.5-0.1l0.3,0l0.5,0l0.1,0l0.7-0.1l0,0c-0.2,0.1-14.9,8.4-17.3,24.2
			c-0.8,5.1-1,10.3-1,14.6C784.6,394.9,780.2,393.3,776.1,391.4z"/>
		<path class="st10" d="M843.7,391.4v9.8c-9.6,4.6-21.2,7.2-33.8,7.2c-12.5,0-24.2-2.7-33.8-7.2v-9.8c9.6,4.6,21.2,7.2,33.8,7.2
			C822.4,398.6,834.1,396,843.7,391.4z"/>
	</g>
	<path class="st3" d="M48.4,366c40.1-22.4,110.3-40.9,198.9-59c14.7-2.8,29.5-5.9,44.1-8.7v0.7c-0.3,8.8-0.2,17.9-0.2,26.8
		c6.1,31.7,75.6,50.2,167.6,54.4c10,0.6,20.4,0.9,30.9,1.1h0c-119.3,0.6-209.3,4.3-408.5,62.3C37.5,420.3,20.7,393.6,48.4,366z"/>
	<path class="st11" d="M500.3,543c-248.4,0-453.5-70.3-484.7-120c-2.4-4.1-3.7-7.8-4-10.8c-0.1-0.6-0.1-1.1-0.1-1.7
		c0-16.7,13.2-31.4,37-44.7c-80.5,80.5,214.7,152.8,451.9,152.8c237.2,0,532.4-72.3,451.9-152.8c23.8,13.3,37,27.9,37,44.7
		c0,0.5-0.1,1.1-0.1,1.7c-0.3,3-1.6,6.6-4,10.8C953.8,472.7,748.7,543,500.3,543z"/>
	<g class="st7">
		<path class="st8" d="M184.9,357.3L184.9,357.3c18.6,0,33.8,15.2,33.8,33.8v0.3c-9.6,4.5-21.2,7.2-33.8,7.2
			c-12.5,0-24.2-2.7-33.8-7.2v-0.3C151.2,372.6,166.4,357.3,184.9,357.3z"/>
		<path class="st9" d="M151.2,391.4v-0.3v-0.1l0-0.8v0c0.4-14.7,10.3-27.2,23.8-31.4l0.7-0.2l0.1,0l0,0l0.8-0.2l0.7-0.2l0.1,0
			l0.6-0.1l0.2,0l0.1,0l0.7-0.1l0.6-0.1l0.3,0l0.6-0.1l0.3,0l0.5-0.1l0.3,0l0.5,0l0.1,0l0.7-0.1l0,0c-0.2,0.1-14.9,8.4-17.3,24.2
			c-0.8,5.1-1,10.3-1,14.6C159.7,394.9,155.2,393.3,151.2,391.4z"/>
		<path class="st10" d="M218.7,391.4v9.8c-9.6,4.6-21.2,7.2-33.8,7.2c-12.5,0-24.2-2.7-33.8-7.2v-9.8c9.6,4.6,21.2,7.2,33.8,7.2
			C197.5,398.6,209.1,396,218.7,391.4z"/>
	</g>
</g>
<g>
	<path class="st8" d="M499.6,14.1c186,0,336.9,150.8,336.9,336.9c0,186-150.8,336.9-336.9,336.9c-186,0-336.9-150.8-336.9-336.9
		C162.7,164.9,313.5,14.1,499.6,14.1z"/>
	<path class="st12" d="M499.6,544.8c-270.9,0-490.5-83.3-490.5-132.9c0-49.5,115.2-81,280.9-112.7c-0.3,9.1-0.3,18.4-0.3,27.6
		c7,36.4,97.6,55.5,209.9,55.5c112.3,0,203.2-20.5,209.9-55.5c-0.1-9.1,0-18.4-0.3-27.5c165.7,31.7,280.8,63.2,280.8,112.7
		C990.1,461.5,770.5,544.8,499.6,544.8z"/>
	<path class="st12" d="M690.2,531c-43.6,40.2-112.7,66.2-190.6,66.2c-77.9,0-147-26-190.6-66.1c58.6,8.6,123,13.7,190.5,13.7
		C567.2,544.8,631.6,539.6,690.2,531z"/>
	<path class="st13" d="M495.2,597.2c-76.1-1-143.4-26.7-186.1-66.1c30.7,4.5,63,8,96.6,10.4C411.8,550.2,436.1,579.1,495.2,597.2z"
		/>
	<path class="st14" d="M499.6,104.7c-109.6,0-201.8,85.3-209.7,194.8l-0.2,10.3c5.9,30.9,97.6,55.5,209.9,55.5
		c112.3,0,203.9-24.6,209.9-55.5l-0.2-10.3C701.5,190.1,609.2,104.7,499.6,104.7z"/>
	<path class="st15" d="M645.5,348.8l1.8-0.5c17.6-4.8,58.2-17.8,62.2-38.5l-0.2-10.3c-5-71.8-47.4-136.6-112.3-170.7
		c-3.1-1.6-5.3-2.8-9.4-4.7c3.3,2.4,57.9,47,57.9,153.1V348.8z"/>
	<path class="st8" d="M289.7,309.8L289.7,309.8v17c7,36.4,97.6,55.5,209.9,55.5c112.3,0,203.2-20.5,209.9-55.5v-17
		c-5.9,30.9-97.6,55.5-209.9,55.5C387.4,365.3,295.7,340.7,289.7,309.8z"/>
	<g>
		<path class="st8" d="M499.6,429.3L499.6,429.3c18.6,0,33.9,15.3,33.9,33.9v0.3c-9.6,4.6-21.3,7.2-33.9,7.2
			c-12.6,0-24.3-2.7-33.9-7.2v-0.3C465.7,444.6,481,429.3,499.6,429.3z"/>
		<path class="st9" d="M465.7,463.5v-0.3v-0.1l0-0.8v0c0.4-14.8,10.3-27.2,23.8-31.5l0.7-0.2l0.1,0l0,0l0.8-0.2l0.7-0.2l0.1,0
			l0.6-0.1l0.2,0l0.1,0l0.7-0.1l0.6-0.1l0.2,0l0.6-0.1l0.3,0l0.5-0.1l0.3,0l0.5,0l0.1,0l0.7-0.1l0,0c-0.2,0.1-14.9,8.5-17.4,24.2
			c-0.8,5.1-1,10.3-1,14.6C474.3,467,469.8,465.4,465.7,463.5z"/>
		<path class="st10" d="M533.5,463.5v9.9c-9.6,4.6-21.3,7.2-33.9,7.2c-12.6,0-24.3-2.7-33.9-7.2v-9.9c9.6,4.6,21.3,7.2,33.9,7.2
			C512.2,470.7,523.9,468,533.5,463.5z"/>
	</g>
	<g>
		<path class="st8" d="M308.6,411.9L308.6,411.9c18.6,0,33.9,15.3,33.9,33.9v0.3c-9.6,4.6-21.3,7.2-33.9,7.2
			c-12.6,0-24.3-2.7-33.9-7.2v-0.3C274.7,427.2,289.9,411.9,308.6,411.9z"/>
		<path class="st9" d="M274.7,446.1v-0.3v-0.1l0-0.8v0c0.4-14.8,10.3-27.2,23.8-31.5l0.7-0.2l0.1,0l0,0l0.8-0.2l0.7-0.2l0.1,0
			l0.6-0.1l0.2,0l0.1,0l0.7-0.1l0.6-0.1l0.3,0l0.6-0.1l0.3,0l0.5-0.1l0.3,0l0.5,0l0.1,0l0.7-0.1h0c-0.2,0.1-14.9,8.5-17.4,24.2
			c-0.8,5.1-1,10.3-1,14.6C283.2,449.6,278.8,448,274.7,446.1z"/>
		<path class="st10" d="M342.5,446.1v9.9c-9.6,4.6-21.3,7.2-33.9,7.2c-12.6,0-24.3-2.7-33.9-7.2v-9.9c9.6,4.6,21.3,7.2,33.9,7.2
			C321.1,453.3,332.8,450.6,342.5,446.1z"/>
	</g>
	<g>
		<path class="st8" d="M680.9,411.9L680.9,411.9c18.6,0,33.9,15.3,33.9,33.9v0.3c-9.6,4.6-21.3,7.2-33.9,7.2
			c-12.6,0-24.3-2.7-33.9-7.2v-0.3C647,427.2,662.3,411.9,680.9,411.9z"/>
		<path class="st9" d="M647,446.1v-0.3v-0.1l0-0.8v0c0.4-14.8,10.3-27.2,23.8-31.5l0.7-0.2l0.1,0l0,0l0.8-0.2l0.7-0.2l0.1,0l0.6-0.1
			l0.2,0l0.1,0l0.7-0.1l0.6-0.1l0.2,0l0.6-0.1l0.3,0l0.5-0.1l0.3,0l0.5,0l0.1,0l0.7-0.1h0.1c-0.2,0.1-14.9,8.5-17.4,24.2
			c-0.8,5.1-1,10.3-1,14.6C655.6,449.6,651.2,448,647,446.1z"/>
		<path class="st10" d="M714.8,446.1v9.9c-9.6,4.6-21.3,7.2-33.9,7.2c-12.6,0-24.3-2.7-33.9-7.2v-9.9c9.6,4.6,21.3,7.2,33.9,7.2
			C693.5,453.3,705.2,450.6,714.8,446.1z"/>
	</g>
	<g>
		<path class="st8" d="M810.2,358.5L810.2,358.5c18.6,0,33.9,15.3,33.9,33.9v0.3c-9.6,4.6-21.3,7.2-33.9,7.2
			c-12.6,0-24.3-2.7-33.9-7.2v-0.3C776.3,373.7,791.5,358.5,810.2,358.5z"/>
		<path class="st9" d="M776.3,392.7v-0.3v-0.1l0-0.8v0c0.4-14.8,10.3-27.2,23.8-31.5l0.7-0.2l0.1,0l0,0l0.8-0.2l0.7-0.2l0.1,0
			l0.6-0.1l0.2,0l0.1,0l0.7-0.1l0.6-0.1l0.2,0l0.6-0.1l0.3,0l0.5-0.1l0.3,0l0.5,0l0.1,0l0.7-0.1l0,0c-0.2,0.1-14.9,8.5-17.4,24.2
			c-0.8,5.1-1,10.3-1,14.6C784.9,396.2,780.4,394.6,776.3,392.7z"/>
		<path class="st10" d="M844.1,392.7v9.9c-9.6,4.6-21.3,7.2-33.9,7.2c-12.6,0-24.3-2.7-33.9-7.2v-9.9c9.6,4.6,21.3,7.2,33.9,7.2
			C822.8,399.9,834.4,397.2,844.1,392.7z"/>
	</g>
	<path class="st13" d="M46.2,367.1c40.2-22.5,110.7-41.1,199.6-59.2c14.8-2.8,29.6-5.9,44.2-8.7v0.7c-0.3,8.9-0.2,18-0.2,26.8
		c6.1,31.8,75.9,50.3,168.1,54.5c10.1,0.6,20.4,1,31,1.1h0c-119.7,0.6-210,4.3-409.9,62.5C35.2,421.7,18.4,394.9,46.2,367.1z"/>
	<path class="st16" d="M499.6,544.8c-249.2,0-455-70.5-486.3-120.4c-2.4-4.2-3.7-7.8-4-10.8c-0.1-0.6-0.1-1.1-0.1-1.7
		c0-16.8,13.2-31.5,37.1-44.8c-80.7,80.7,215.4,153.3,453.4,153.3c238,0,534.1-72.5,453.4-153.3c23.9,13.3,37.1,28,37.1,44.8
		c0,0.6-0.1,1.1-0.1,1.7c-0.4,3-1.6,6.7-4,10.8C954.6,474.3,748.8,544.8,499.6,544.8z"/>
	<g>
		<path class="st8" d="M183.2,358.5L183.2,358.5c18.6,0,33.9,15.3,33.9,33.9v0.3c-9.6,4.6-21.3,7.2-33.9,7.2
			c-12.6,0-24.3-2.7-33.9-7.2v-0.3C149.3,373.7,164.5,358.5,183.2,358.5z"/>
		<path class="st9" d="M149.3,392.7v-0.3v-0.1l0-0.8v0c0.4-14.8,10.3-27.2,23.8-31.5l0.7-0.2l0.1,0l0,0l0.8-0.2l0.7-0.2l0.1,0
			l0.6-0.1l0.2,0l0.1,0l0.7-0.1l0.6-0.1l0.3,0l0.6-0.1l0.3,0l0.5-0.1l0.3,0l0.5,0l0.1,0l0.7-0.1l0,0c-0.2,0.1-14.9,8.5-17.4,24.2
			c-0.8,5.1-1,10.3-1,14.6C157.8,396.2,153.4,394.6,149.3,392.7z"/>
		<path class="st10" d="M217.1,392.7v9.9c-9.6,4.6-21.3,7.2-33.9,7.2c-12.6,0-24.3-2.7-33.9-7.2v-9.9c9.6,4.6,21.3,7.2,33.9,7.2
			C195.7,399.9,207.4,397.2,217.1,392.7z"/>
	</g>
</g>
</svg>
